<mxfile host="Electron" modified="2024-01-28T17:15:44.347Z" agent="Mozilla/5.0 (Windows NT 10.0; Win64; x64) AppleWebKit/537.36 (KHTML, like Gecko) draw.io/22.1.21 Chrome/120.0.6099.109 Electron/28.1.0 Safari/537.36" etag="8YXdls5eBUPSC_qdmh43" version="22.1.21" type="device">
  <diagram name="Page-1" id="42789a77-a242-8287-6e28-9cd8cfd52e62">
    <mxGraphModel dx="1434" dy="836" grid="1" gridSize="10" guides="1" tooltips="1" connect="1" arrows="1" fold="1" page="1" pageScale="1" pageWidth="1100" pageHeight="850" background="none" math="0" shadow="0">
      <root>
        <mxCell id="0" />
        <mxCell id="1" parent="0" />
        <mxCell id="Bh0hLF0kNKdTOiRzGCGv-5" value="Press B" style="endArrow=classic;html=1;rounded=0;exitX=1;exitY=0.5;exitDx=0;exitDy=0;entryX=0;entryY=0.5;entryDx=0;entryDy=0;exitPerimeter=0;entryPerimeter=0;" parent="1" source="Bh0hLF0kNKdTOiRzGCGv-10" target="Bh0hLF0kNKdTOiRzGCGv-11" edge="1">
          <mxGeometry width="50" height="50" relative="1" as="geometry">
            <mxPoint x="450" y="200" as="sourcePoint" />
            <mxPoint x="500" y="150" as="targetPoint" />
          </mxGeometry>
        </mxCell>
        <mxCell id="Bh0hLF0kNKdTOiRzGCGv-10" value="&lt;p style=&quot;margin:0px;margin-top:4px;text-align:center;&quot;&gt;leftFront CW&lt;br&gt;&lt;/p&gt;&lt;hr&gt;&lt;p&gt;&lt;/p&gt;&lt;p style=&quot;margin:0px;margin-left:8px;text-align:left;&quot;&gt;entry / activate motor&lt;br&gt;do / doActivity&lt;br&gt;exit /&amp;nbsp;&lt;/p&gt;" style="shape=mxgraph.sysml.simpleState;html=1;overflow=fill;whiteSpace=wrap;align=center;" parent="1" vertex="1">
          <mxGeometry x="110" y="60" width="240" height="160" as="geometry" />
        </mxCell>
        <mxCell id="Bh0hLF0kNKdTOiRzGCGv-11" value="&lt;p style=&quot;margin:0px;margin-top:4px;text-align:center;&quot;&gt;rightFront CW&lt;br&gt;&lt;/p&gt;&lt;hr&gt;&lt;p&gt;&lt;/p&gt;&lt;blockquote style=&quot;margin: 0 0 0 40px; border: none; padding: 0px;&quot;&gt;&lt;div style=&quot;text-align: left;&quot;&gt;&lt;span style=&quot;background-color: initial;&quot;&gt;entry / activate motor&lt;/span&gt;&lt;/div&gt;&lt;span style=&quot;&quot;&gt;&lt;div style=&quot;text-align: left;&quot;&gt;&lt;span style=&quot;background-color: initial;&quot;&gt;do / doActivity&lt;/span&gt;&lt;/div&gt;&lt;/span&gt;&lt;span style=&quot;&quot;&gt;&lt;div style=&quot;text-align: left;&quot;&gt;&lt;span style=&quot;background-color: initial;&quot;&gt;exit /&amp;nbsp;&lt;/span&gt;&lt;/div&gt;&lt;/span&gt;&lt;/blockquote&gt;" style="shape=mxgraph.sysml.simpleState;html=1;overflow=fill;whiteSpace=wrap;align=center;" parent="1" vertex="1">
          <mxGeometry x="610" y="60" width="240" height="160" as="geometry" />
        </mxCell>
        <mxCell id="Bh0hLF0kNKdTOiRzGCGv-12" value="&lt;p style=&quot;margin:0px;margin-top:4px;text-align:center;&quot;&gt;leftBack CW&lt;br&gt;&lt;/p&gt;&lt;hr&gt;&lt;p&gt;&lt;/p&gt;&lt;p style=&quot;margin:0px;margin-left:8px;text-align:left;&quot;&gt;entry / activate motor&lt;br&gt;do / doActivity&lt;br&gt;exit /&amp;nbsp;&lt;/p&gt;" style="shape=mxgraph.sysml.simpleState;html=1;overflow=fill;whiteSpace=wrap;align=center;" parent="1" vertex="1">
          <mxGeometry x="120" y="425" width="240" height="160" as="geometry" />
        </mxCell>
        <mxCell id="Bh0hLF0kNKdTOiRzGCGv-13" value="&lt;p style=&quot;margin:0px;margin-top:4px;text-align:center;&quot;&gt;rightBack CW&lt;br&gt;&lt;/p&gt;&lt;hr&gt;&lt;p&gt;&lt;/p&gt;&lt;p style=&quot;margin:0px;margin-left:8px;text-align:left;&quot;&gt;entry / activate motor&lt;br&gt;do / doActivity&lt;br&gt;exit /&amp;nbsp;&lt;/p&gt;" style="shape=mxgraph.sysml.simpleState;html=1;overflow=fill;whiteSpace=wrap;align=center;" parent="1" vertex="1">
          <mxGeometry x="610" y="425" width="240" height="160" as="geometry" />
        </mxCell>
        <mxCell id="Bh0hLF0kNKdTOiRzGCGv-14" value="Press&amp;nbsp; A" style="endArrow=classic;html=1;rounded=0;exitX=0.5;exitY=1;exitDx=0;exitDy=0;entryX=0.5;entryY=0;entryDx=0;entryDy=0;exitPerimeter=0;entryPerimeter=0;" parent="1" source="Bh0hLF0kNKdTOiRzGCGv-11" target="Bh0hLF0kNKdTOiRzGCGv-13" edge="1">
          <mxGeometry width="50" height="50" relative="1" as="geometry">
            <mxPoint x="360" y="150" as="sourcePoint" />
            <mxPoint x="620" y="150" as="targetPoint" />
          </mxGeometry>
        </mxCell>
        <mxCell id="Bh0hLF0kNKdTOiRzGCGv-15" value="Press&amp;nbsp; X" style="endArrow=classic;html=1;rounded=0;exitX=0;exitY=0.5;exitDx=0;exitDy=0;entryX=1;entryY=0.5;entryDx=0;entryDy=0;exitPerimeter=0;entryPerimeter=0;" parent="1" source="Bh0hLF0kNKdTOiRzGCGv-13" target="Bh0hLF0kNKdTOiRzGCGv-12" edge="1">
          <mxGeometry width="50" height="50" relative="1" as="geometry">
            <mxPoint x="740" y="230" as="sourcePoint" />
            <mxPoint x="740" y="435" as="targetPoint" />
          </mxGeometry>
        </mxCell>
        <mxCell id="Bh0hLF0kNKdTOiRzGCGv-16" value="Press Y" style="endArrow=classic;html=1;rounded=0;exitX=0.458;exitY=0.031;exitDx=0;exitDy=0;entryX=0.5;entryY=1;entryDx=0;entryDy=0;exitPerimeter=0;entryPerimeter=0;" parent="1" source="Bh0hLF0kNKdTOiRzGCGv-12" target="Bh0hLF0kNKdTOiRzGCGv-10" edge="1">
          <mxGeometry width="50" height="50" relative="1" as="geometry">
            <mxPoint x="750" y="240" as="sourcePoint" />
            <mxPoint x="750" y="445" as="targetPoint" />
          </mxGeometry>
        </mxCell>
        <mxCell id="2IbICEcBELNxow51wWl--1" value="Press&amp;nbsp; Dpad up" style="endArrow=classic;html=1;rounded=0;exitX=0;exitY=0;exitDx=2.9;exitDy=157.1;entryX=0;entryY=0;entryDx=237.1;entryDy=2.9;exitPerimeter=0;entryPerimeter=0;" parent="1" source="Bh0hLF0kNKdTOiRzGCGv-11" target="Bh0hLF0kNKdTOiRzGCGv-12" edge="1">
          <mxGeometry width="50" height="50" relative="1" as="geometry">
            <mxPoint x="620" y="515" as="sourcePoint" />
            <mxPoint x="370" y="515" as="targetPoint" />
          </mxGeometry>
        </mxCell>
        <mxCell id="2IbICEcBELNxow51wWl--2" value="&lt;p style=&quot;margin:0px;margin-top:4px;text-align:center;&quot;&gt;thing1Talon&lt;br&gt;&lt;/p&gt;&lt;hr&gt;&lt;p&gt;&lt;/p&gt;&lt;p style=&quot;margin:0px;margin-left:8px;text-align:left;&quot;&gt;entry / activate motor&lt;br&gt;do / doActivity&lt;br&gt;exit /&amp;nbsp;&lt;/p&gt;" style="shape=mxgraph.sysml.simpleState;html=1;overflow=fill;whiteSpace=wrap;align=center;" parent="1" vertex="1">
          <mxGeometry x="610" y="690" width="240" height="160" as="geometry" />
        </mxCell>
        <mxCell id="2IbICEcBELNxow51wWl--3" value="Press&amp;nbsp; Left Bump" style="endArrow=classic;html=1;rounded=0;exitX=0.25;exitY=1;exitDx=0;exitDy=0;exitPerimeter=0;entryX=0.25;entryY=0;entryDx=0;entryDy=0;entryPerimeter=0;" parent="1" source="Bh0hLF0kNKdTOiRzGCGv-13" target="2IbICEcBELNxow51wWl--2" edge="1">
          <mxGeometry x="0.0084" width="50" height="50" relative="1" as="geometry">
            <mxPoint x="623" y="227" as="sourcePoint" />
            <mxPoint x="730" y="680" as="targetPoint" />
            <mxPoint as="offset" />
          </mxGeometry>
        </mxCell>
        <mxCell id="2IbICEcBELNxow51wWl--4" value="Press&amp;nbsp; Right Bump" style="endArrow=classic;html=1;rounded=0;exitX=0.75;exitY=0;exitDx=0;exitDy=0;entryX=0.75;entryY=1;entryDx=0;entryDy=0;exitPerimeter=0;entryPerimeter=0;" parent="1" source="2IbICEcBELNxow51wWl--2" target="Bh0hLF0kNKdTOiRzGCGv-13" edge="1">
          <mxGeometry x="0.0084" width="50" height="50" relative="1" as="geometry">
            <mxPoint x="740" y="595" as="sourcePoint" />
            <mxPoint x="740" y="700" as="targetPoint" />
            <mxPoint as="offset" />
          </mxGeometry>
        </mxCell>
        <mxCell id="2IbICEcBELNxow51wWl--5" value="&lt;p style=&quot;margin:0px;margin-top:4px;text-align:center;&quot;&gt;sparkyOn&lt;/p&gt;&lt;hr&gt;&lt;p&gt;&lt;/p&gt;&lt;p style=&quot;margin:0px;margin-left:8px;text-align:left;&quot;&gt;entry / activate motor&lt;br&gt;do / doActivity&lt;br&gt;exit /&amp;nbsp;&lt;/p&gt;" style="shape=mxgraph.sysml.simpleState;html=1;overflow=fill;whiteSpace=wrap;align=center;" parent="1" vertex="1">
          <mxGeometry x="120" y="695" width="240" height="160" as="geometry" />
        </mxCell>
        <mxCell id="2IbICEcBELNxow51wWl--6" value="Press&amp;nbsp; Left Bump" style="endArrow=classic;html=1;rounded=0;entryX=0.25;entryY=0;entryDx=0;entryDy=0;entryPerimeter=0;exitX=0.25;exitY=1;exitDx=0;exitDy=0;exitPerimeter=0;" parent="1" source="Bh0hLF0kNKdTOiRzGCGv-12" target="2IbICEcBELNxow51wWl--5" edge="1">
          <mxGeometry x="0.0084" width="50" height="50" relative="1" as="geometry">
            <mxPoint x="120" y="600" as="sourcePoint" />
            <mxPoint x="240" y="685" as="targetPoint" />
            <mxPoint as="offset" />
          </mxGeometry>
        </mxCell>
        <mxCell id="2IbICEcBELNxow51wWl--7" value="Press&amp;nbsp; Right Bump" style="endArrow=classic;html=1;rounded=0;exitX=0.75;exitY=0;exitDx=0;exitDy=0;exitPerimeter=0;entryX=0.75;entryY=1;entryDx=0;entryDy=0;entryPerimeter=0;" parent="1" source="2IbICEcBELNxow51wWl--5" target="Bh0hLF0kNKdTOiRzGCGv-12" edge="1">
          <mxGeometry x="0.0084" width="50" height="50" relative="1" as="geometry">
            <mxPoint x="250" y="600" as="sourcePoint" />
            <mxPoint x="410" y="630" as="targetPoint" />
            <mxPoint as="offset" />
          </mxGeometry>
        </mxCell>
      </root>
    </mxGraphModel>
  </diagram>
</mxfile>
